<svg xmlns="http://www.w3.org/2000/svg" viewBox="0 0 509.72 303.68"><defs><style>.cls-1{fill:#ffcd1f;}</style></defs><g id="Layer_2" data-name="Layer 2"><g id="Layer_1-2" data-name="Layer 1"><path class="cls-1" d="M133.78,250.37q-28.89,0-53.3-9.29A127,127,0,0,1,38,214.78a121,121,0,0,1-28-39.73Q0,152.35,0,125.19T10,75.32A120.94,120.94,0,0,1,38,35.6,126.85,126.85,0,0,1,80.48,9.29Q104.89,0,133.78,0,163,0,187.26,9.29a126.79,126.79,0,0,1,42.13,26.13,121.94,121.94,0,0,1,28,39.73q10.14,22.88,10.15,50t-10.15,50a121.73,121.73,0,0,1-28,39.73,126.79,126.79,0,0,1-42.13,26.13Q163,250.38,133.78,250.37Zm0-56.4a67.26,67.26,0,0,0,25.62-4.82A59.06,59.06,0,0,0,180,175.22a65.57,65.57,0,0,0,13.76-21.83,76.79,76.79,0,0,0,5-28.2,76.44,76.44,0,0,0-5-28.38A66,66,0,0,0,180,75.15,59.19,59.19,0,0,0,159.4,61.22a70.5,70.5,0,0,0-51.24,0A59.06,59.06,0,0,0,87.53,75.15,65.87,65.87,0,0,0,73.77,96.81a76.24,76.24,0,0,0-5,28.38,76.58,76.58,0,0,0,5,28.2,65.42,65.42,0,0,0,13.76,21.83,58.93,58.93,0,0,0,20.63,13.93A67.29,67.29,0,0,0,133.78,194Zm78.76,109.71a121.72,121.72,0,0,1-28.89-3.27,104.18,104.18,0,0,1-26.31-10.49,154.72,154.72,0,0,1-26.82-19.6q-13.94-12.39-31.13-30.61l71.19-17.88a155.8,155.8,0,0,0,15.48,19.94,45.64,45.64,0,0,0,13.58,10.32,33.72,33.72,0,0,0,14.28,3.1q19.94,0,36.45-16.86L280,273.41Q254.84,303.68,212.54,303.68Z"/><path class="cls-1" d="M301,298.45V45.33h62.25V77l-.34,61.56,3.44,61.91v98Zm117.28-63.62q-23.73,0-40.58-10.49T352,192.7q-8.76-21.15-8.77-54.17,0-33.36,8.26-54.51t24.93-31.47q16.68-10.32,41.79-10.32,25.44,0,46.26,11.87a87.16,87.16,0,0,1,33,33.36q12.21,21.5,12.21,51.07t-12.21,51.24a85.53,85.53,0,0,1-33,33.36Q443.68,234.83,418.24,234.83ZM404.48,182.9a38.28,38.28,0,0,0,19.78-5.16,37.63,37.63,0,0,0,14.1-15.14q5.33-10,5.33-24.07t-5.33-24.07a37.69,37.69,0,0,0-14.1-15.14,40.54,40.54,0,0,0-39.55,0,37.56,37.56,0,0,0-14.1,15.14q-5.34,10-5.33,24.07t5.33,24.07a37.49,37.49,0,0,0,14.1,15.14A38.22,38.22,0,0,0,404.48,182.9Z"/></g></g></svg>